<svg height="1000" viewBox="0 0 1440 1000" width="1440" xmlns="http://www.w3.org/2000/svg" xmlns:xlink="http://www.w3.org/1999/xlink"><defs><path id="a" d="m0 0h1440v1000h-1440z"/><mask id="b" fill="#fff"><use fill="#fff" fill-rule="evenodd" xlink:href="#a"/></mask></defs><g fill="none" fill-rule="evenodd"><use fill="#50e3c2" xlink:href="#a"/><g fill="#00d293" mask="url(#b)"><g fill-rule="evenodd" transform="translate(592 -140)"><path d="m440.5 540c243.281432 0 440.5 197.218568 440.5 440.5 0 243.28143-197.218568 440.5-440.5 440.5s-440.5-197.21857-440.5-440.5c0-243.281432 197.218568-440.5 440.5-440.5z" fill-rule="nonzero" opacity=".3"/><path d="m578.761543 263.415159c0-1.05595.001998-2.099923.007991-3.155873l.123862-22.252796c.31165-55.120983 45.28122-99.554715 100.447355-99.24332 54.972352.307403 99.326611 44.932763 99.326611 99.792254 0 .191628 0 .379263-.001997.570891l-.121864 22.250801c-.003995.668701-.005993 1.341395-.005993 2.010097-.001998 95.546497 38.095279 184.380027 107.411545 250.339966 69.799724 66.42304 161.245177 100.121614 257.495237 94.889771 55.08423-2.996182 102.17142 39.193906 105.16806 94.235043 2.98665 55.043134-39.22801 102.087797-94.31423 105.079988-76.57213 4.163916-151.47413-7.361707-222.62834-34.255493-68.499182-25.891731-130.235949-64.71835-183.498219-115.403944-53.26227-50.681602-95.08337-110.403651-124.3046-177.501381-29.934431-68.738545-45.10342-141.858582-45.105418-217.356004" opacity=".3" transform="matrix(.70710678 -.70710678 .70710678 .70710678 -67.36544 784.888527)"/></g><path d="m506.993232 571.782637c-37.073136-38.401259-59.9369-90.977134-59.9369-148.966206 0-117.608005 94.022923-212.951096 210.003744-212.951096 115.973333 0 209.996256 95.343091 209.996256 212.951096 0 57.989072-22.863763 110.564947-59.936899 148.966206 21.261653 30.406835 33.756617 67.561731 33.756617 107.681349 0 102.946644-82.306554 186.401349-183.815974 186.401349-101.524394 0-183.823462-83.454705-183.823462-186.401349 0-40.119618 12.502451-77.274514 33.756618-107.681349" fill-rule="nonzero" opacity=".3" transform="matrix(.5 .8660254 -.8660254 .5 254.33321 -300.094808)"/></g></g></svg>